<svg width="56" height="56" viewBox="0 0 56 56" fill="none" xmlns="http://www.w3.org/2000/svg">
<path d="M15.575 10.375L6.725 19.225C-1.575 27.525 -1.575 40.975 6.725 49.275C15.025 57.575 28.475 57.575 36.775 49.275L51.8 34.25C52.4511 33.5908 52.9486 32.7959 53.257 31.9222C53.5653 31.0484 53.6769 30.1174 53.5838 29.1955C53.4906 28.2737 53.1951 27.3837 52.7182 26.5893C52.2413 25.7949 51.5948 25.1156 50.825 24.6L51.8 23.625C54.225 21.2 54.225 17.225 51.8 14.775C51.4 14.375 50.925 14.025 50.45 13.75C50.9995 12.5023 51.1254 11.1089 50.8084 9.78293C50.4915 8.45691 49.7492 7.2711 48.6949 6.40669C47.6406 5.54227 46.3323 5.04678 44.9699 4.99591C43.6074 4.94505 42.2658 5.34161 41.15 6.125C40.6413 5.34145 39.9645 4.68099 39.1687 4.19159C38.373 3.70218 37.4782 3.3961 36.5494 3.29556C35.6207 3.19502 34.6811 3.30255 33.7991 3.61034C32.917 3.91813 32.1146 4.41845 31.45 5.075L25.175 11.35C24.6657 10.5798 23.9916 9.93235 23.2014 9.45453C22.4112 8.97671 21.5248 8.68044 20.6061 8.58713C19.6874 8.49383 18.7595 8.60583 17.8894 8.91503C17.0193 9.22423 16.2288 9.7229 15.575 10.375ZM19.1 13.925C19.6 13.425 20.375 13.425 20.875 13.925C21.375 14.425 21.375 15.2 20.875 15.7L12.925 23.65C14.3295 25.0563 15.1184 26.9625 15.1184 28.95C15.1184 30.9375 14.3295 32.8437 12.925 34.25L16.45 37.775C18.1683 36.0551 19.3482 33.8718 19.8455 31.492C20.3428 29.1122 20.1358 26.6391 19.25 24.375L35 8.625C35.5 8.125 36.275 8.125 36.775 8.625C37.275 9.125 37.275 9.9 36.775 10.4L25.275 21.9L28.8 25.425L43.825 10.4C44.325 9.9 45.1 9.9 45.6 10.4C46.1 10.9 46.1 11.675 45.6 12.175L30.575 27.2L34.1 30.725L46.475 18.35C46.975 17.85 47.75 17.85 48.25 18.35C48.75 18.85 48.75 19.625 48.25 20.125L34.1 34.275L37.625 37.8L46.475 28.95C46.975 28.45 47.75 28.45 48.25 28.95C48.75 29.45 48.75 30.225 48.25 30.725L33.25 45.75C26.9 52.1 16.625 52.1 10.275 45.75C3.925 39.4 3.925 29.125 10.275 22.775L19.1 13.925ZM55.5 40.5C55.5 48.775 48.775 55.5 40.5 55.5V51.75C46.7 51.75 51.75 46.7 51.75 40.5H55.5ZM0.5 15.5C0.5 7.225 7.225 0.5 15.5 0.5V4.25C9.3 4.25 4.25 9.3 4.25 15.5H0.5Z" fill="#444444"/>
</svg>
